<?xml version="1.0" encoding="UTF-8"?>
<svg width="128px" height="128px" viewBox="0 0 128 128" version="1.1" xmlns="http://www.w3.org/2000/svg">
    <path fill="#06b6d4" d="M64 0C48 0 38.4 6.4 35.2 19.2C38.4 12.8 44.8 9.6 54.4 9.6C64 9.6 70.4 16 76.8 22.4C83.2 28.8 89.6 32 96 32C112 32 121.6 25.6 124.8 12.8C121.6 19.2 115.2 22.4 105.6 22.4C96 22.4 89.6 16 83.2 9.6C76.8 3.2 70.4 0 64 0ZM32 32C16 32 6.4 38.4 3.2 51.2C6.4 44.8 12.8 41.6 22.4 41.6C32 41.6 38.4 48 44.8 54.4C51.2 60.8 57.6 64 64 64C80 64 89.6 57.6 92.8 44.8C89.6 51.2 83.2 54.4 73.6 54.4C64 54.4 57.6 48 51.2 41.6C44.8 35.2 38.4 32 32 32Z"/>
</svg> 