<?xml version="1.0" encoding="UTF-8"?>
<svg width="128px" height="128px" viewBox="0 0 128 128" version="1.1" xmlns="http://www.w3.org/2000/svg">
    <path fill="#007acc" d="M0 0h128v128H0z"/>
    <path fill="#fff" d="M22.67 47.99c0-10.95 4.2-18.95 12.6-24.03 8.4-5.08 19.6-7.62 33.6-7.62 14 0 25.2 2.54 33.6 7.62 8.4 5.08 12.6 13.08 12.6 24.03 0 10.95-4.2 18.95-12.6 24.03-8.4 5.08-19.6 7.62-33.6 7.62-14 0-25.2-2.54-33.6-7.62-8.4-5.08-12.6-13.08-12.6-24.03zm12.6 0c0 7.62 2.8 13.08 8.4 16.38 5.6 3.3 13.3 4.95 23.1 4.95 9.8 0 17.5-1.65 23.1-4.95 5.6-3.3 8.4-8.76 8.4-16.38 0-7.62-2.8-13.08-8.4-16.38-5.6-3.3-13.3-4.95-23.1-4.95-9.8 0-17.5 1.65-23.1 4.95-5.6 3.3-8.4 8.76-8.4 16.38z"/>
    <path fill="#fff" d="M22.67 80.01c0-10.95 4.2-18.95 12.6-24.03 8.4-5.08 19.6-7.62 33.6-7.62 14 0 25.2 2.54 33.6 7.62 8.4 5.08 12.6 13.08 12.6 24.03 0 10.95-4.2 18.95-12.6 24.03-8.4 5.08-19.6 7.62-33.6 7.62-14 0-25.2-2.54-33.6-7.62-8.4-5.08-12.6-13.08-12.6-24.03zm12.6 0c0 7.62 2.8 13.08 8.4 16.38 5.6 3.3 13.3 4.95 23.1 4.95 9.8 0 17.5-1.65 23.1-4.95 5.6-3.3 8.4-8.76 8.4-16.38 0-7.62-2.8-13.08-8.4-16.38-5.6-3.3-13.3-4.95-23.1-4.95-9.8 0-17.5 1.65-23.1 4.95-5.6 3.3-8.4 8.76-8.4 16.38z"/>
</svg> 